<svg width="18.830078" height="14.525391" viewBox="0 0 18.8301 14.5254" fill="none" xmlns="http://www.w3.org/2000/svg" xmlns:xlink="http://www.w3.org/1999/xlink">
	<desc>
			Created with Pixso.
	</desc>
	<defs/>
	<path id="Polygon 4" d="M18.4902 2.44922L9.47266 13.5977Q9.1333 14.0171 8.65381 14.2583Q8.19385 14.4902 7.67822 14.521Q7.16309 14.5518 6.67871 14.377Q6.17334 14.1943 5.78662 13.8184L0.460938 8.64355L2.55127 6.4917L7.87744 11.667Q7.71924 11.5132 7.49902 11.5264Q7.27881 11.5396 7.14014 11.7109L16.1582 0.5625L18.4902 2.44922ZM0.489258 8.64307L0.460938 8.64355C-0.141602 8.05811 -0.155273 7.125 0.430176 6.52246C1.01562 5.91992 1.94873 5.90674 2.55127 6.4917L2.55176 6.52002L0.489258 8.64307ZM16.1611 0.59082L16.1582 0.5625C16.686 -0.0908203 17.6143 -0.188477 18.2676 0.339844C18.9209 0.867676 19.0186 1.7959 18.4902 2.44922L18.4624 2.45215L16.1611 0.59082Z" fill="#FFFFFF" fill-opacity="1.000000" fill-rule="evenodd"/>
</svg>
