<svg width="3" height="14" viewBox="0 0 3 14" fill="none" xmlns="http://www.w3.org/2000/svg">
<path d="M0.976 0.802C1.41933 0.839999 1.80567 0.960332 2.135 1.163C2.46433 1.353 2.629 1.64433 2.629 2.037C2.629 2.32833 2.48967 2.56267 2.211 2.74C1.945 2.90467 1.622 2.987 1.242 2.987C0.874667 2.987 0.621333 2.892 0.482 2.702C0.342667 2.512 0.273 2.31567 0.273 2.113C0.273 1.733 0.311 1.41633 0.387 1.163C0.475667 0.909666 0.672 0.789333 0.976 0.802ZM2.496 9.219V9.77C2.496 10.264 2.50867 10.7327 2.534 11.176C2.572 11.6067 2.61633 12.0437 2.667 12.487C2.65433 12.6137 2.55933 12.7467 2.382 12.886C2.20467 13.0127 2.04633 13.076 1.907 13.076C1.66633 13.076 1.41933 13.0317 1.166 12.943C0.925333 12.8417 0.779667 12.7213 0.729 12.582C0.653 12.1767 0.615 11.8157 0.615 11.499C0.615 10.4603 0.583333 9.295 0.52 8.003C0.469333 6.863 0.444 6.065 0.444 5.609C0.444 5.381 0.558 5.18467 0.786 5.02C1.014 4.85533 1.25467 4.773 1.508 4.773C1.87533 4.773 2.12867 4.85533 2.268 5.02C2.42 5.18467 2.496 5.44433 2.496 5.799V9.219Z" fill="#FF0000"/>
</svg>
